<?xml version="1.0" standalone="no"?><!DOCTYPE svg PUBLIC "-//W3C//DTD SVG 1.1//EN"
        "http://www.w3.org/Graphics/SVG/1.1/DTD/svg11.dtd">
<svg t="1706265998706" class="icon" viewBox="0 0 1024 1024" version="1.1" xmlns="http://www.w3.org/2000/svg" p-id="4597"
     xmlns:xlink="http://www.w3.org/1999/xlink" width="512" height="512">
    <path d="M441.183862 582.815818m-441.183862 0a441.183862 441.183862 0 1 0 882.367724 0 441.183862 441.183862 0 1 0-882.367724 0Z"
          fill="#FFD93B" p-id="4598"></path>
    <path d="M441.183862 582.815818m-441.183862 0a441.183862 441.183862 0 1 0 882.367724 0 441.183862 441.183862 0 1 0-882.367724 0Z"
          fill="#FFD93B" p-id="4599"></path>
    <path d="M882.399724 582.815818C882.399724 826.559742 684.831786 1023.99968 441.183862 1023.99968a440.319862 440.319862 0 0 1-343.455893-164.223949 438.847863 438.847863 0 0 0 276.991914 97.75997c243.615924 0 441.183862-197.439938 441.183862-441.183862 0-104.927967-36.543989-201.279937-97.759969-276.991914a440.639862 440.639862 0 0 1 164.255948 343.455893z"
          fill="#F4C534" p-id="4600"></path>
    <path d="M1023.99968 127.55196c0 70.271978-66.271979 127.55196-147.519954 127.55196-81.663974 0-147.519954-57.311982-147.519954-127.55196C728.927772 56.959982 794.815752 0 876.479726 0 957.727701 0 1023.99968 56.959982 1023.99968 127.55196z"
          fill="#E9EFF4" p-id="4601"></path>
    <path d="M814.958958 286.372157a84.351974 84.351974 0 1 0 22.169157-167.240995 84.351974 84.351974 0 1 0-22.169157 167.240995Z"
          fill="#E9EFF4" p-id="4602"></path>
    <path d="M727.755815 335.324627a26.143992 26.143992 0 1 0 6.871093-51.834557 26.143992 26.143992 0 1 0-6.871093 51.834557Z"
          fill="#E9EFF4" p-id="4603"></path>
    <path d="M688.269356 390.063391a20.319994 20.319994 0 1 0 5.340446-40.287569 20.319994 20.319994 0 1 0-5.340446 40.287569Z"
          fill="#E9EFF4" p-id="4604"></path>
    <path d="M887.903723 162.431949h-24.511993c-0.384-20.223994 1.088-28.319991 19.615994-43.391986 8.415997-6.847998 17.695994-12.831996 17.695995-22.975993 0-9.759997-7.999998-19.135994-23.263993-19.135994-13.247996 0-23.167993 7.231998-26.751992 23.743993l-24.799992-3.071999c1.344-21.599993 19.135994-41.247987 50.399984-41.247988 33.08799 0 50.783984 20.479994 50.783984 40.479988 0 16.639995-13.535996 27.775991-26.655991 38.655988-11.295996 9.407997-12.735996 12.447996-12.511996 26.943991z m-24.511993 36.351989v-27.007992h27.039992v27.039992h-27.039992z"
          fill="#E24B4B" p-id="4605"></path>
    <path d="M411.615871 534.143833a133.759958 133.759958 0 0 1-133.759958 134.079958c-74.239977 0-134.079958-59.839981-134.079958-134.079958a133.759958 133.759958 0 0 1 134.079958-133.759958c73.919977 0 133.759958 59.839981 133.759958 133.759958z"
          fill="#FFFFFF" p-id="4606"></path>
    <path d="M369.471885 507.199842a52.063984 52.063984 0 1 1-51.967984-51.967984 51.999984 51.999984 0 0 1 51.967984 51.967984z"
          fill="#3E4347" p-id="4607"></path>
    <path d="M347.327891 499.871844c-4.415999 4.063999-12.479996 1.951999-18.559994-4.319999-5.727998-6.623998-7.135998-14.815995-2.719999-18.879994 4.415999-4.063999 12.831996-2.271999 18.591994 3.967999 6.047998 6.623998 7.103998 15.167995 2.687999 19.231994zM738.623769 534.143833a133.759958 133.759958 0 0 1-133.759958 134.079958c-74.239977 0-134.079958-59.839981-134.079958-134.079958a133.759958 133.759958 0 0 1 134.079958-133.759958c73.919977 0 133.759958 59.839981 133.759958 133.759958z"
          fill="#FFFFFF" p-id="4608"></path>
    <path d="M696.447782 507.199842a52.063984 52.063984 0 1 1-51.967983-51.967984 51.999984 51.999984 0 0 1 51.967983 51.967984z"
          fill="#3E4347" p-id="4609"></path>
    <path d="M674.303789 499.871844c-4.415999 4.063999-12.479996 1.951999-18.559994-4.319999-5.727998-6.623998-7.135998-14.815995-2.719999-18.879994 4.415999-4.063999 12.831996-2.271999 18.591994 3.967999 6.079998 6.623998 7.135998 15.167995 2.687999 19.231994z"
          fill="#FFFFFF" p-id="4610"></path>
    <path d="M618.847807 838.911738c-6.559998 15.551995-35.231989 16.223995-45.951986 7.935997-54.239983-21.087993-162.335949-5.183998-232.127927 31.77599-26.239992 13.823996-59.423981 6.911998-73.919977-19.007994a124.095961 124.095961 0 0 1-3.455999-6.559998c-27.967991-78.751975 51.807984-203.103937 177.887944-126.78396 125.727961 77.407976 205.887936 65.663979 177.567945 112.639965z"
          fill="#3E4347" p-id="4611"></path>
    <path d="M489.439847 832.22374a78.239976 78.239976 0 0 0-38.367988-63.10398c-11.135997-6.463998-24.703992-5.727998-36.319989-0.096a65.59998 65.59998 0 0 1-28.959991 6.271998h-0.191999c-17.439995 0-34.015989 8.287997-42.591987 23.519992a78.719975 78.719975 0 0 0-9.439997 33.43999h155.871951z"
          fill="#E24B4B" p-id="4612"></path>
    <path d="M572.895821 846.847735c10.047997 7.775998 35.615989 7.487998 44.223986-5.375998-32.79999-23.519993-101.279968-20.767994-180.735943-20.767993-76.255976 0-142.591955-2.687999-176.799945 17.919994 0.928 4.927998 2.111999 9.759997 3.775999 14.431995 1.024 2.079999 2.079999 4.127999 3.455999 6.559998 14.527995 25.919992 47.679985 32.79999 73.919977 19.007994 69.823978-36.959988 177.919944-52.831983 232.159927-31.77599zM416.67187 745.599767c19.711994 0 38.687988-0.288 56.671982-0.992a586.399817 586.399817 0 0 1-32.06399-18.303994c-67.103979-40.639987-120.863962-24.191992-152.479952 11.743996 34.719989 5.919998 79.263975 7.551998 127.87196 7.551998z"
          fill="#FFFFFF" p-id="4613"></path>
</svg>